<svg id="Layer_1" data-name="Layer 1" xmlns="http://www.w3.org/2000/svg" viewBox="0 0 1354.61 349.87"><defs><style>.cls-1{fill:#e6e6e6;}</style></defs><path class="cls-1" d="M545.09,365.07V540A174.94,174.94,0,0,1,370.16,714.93H282.69V627.47h87.47A87.46,87.46,0,0,0,457.63,540V365.07Z" transform="translate(-282.69 -365.07)"/><path class="cls-1" d="M559.3,365.07H734.23a174.93,174.93,0,0,1,0,349.86H559.3V627.47H734.23a87.47,87.47,0,0,0,0-174.94H559.3Z" transform="translate(-282.69 -365.07)"/><path class="cls-1" d="M1287.44,714.93V540a174.93,174.93,0,0,1,174.93-174.93c96.6,0,174.94,78.33,174.94,174.93V714.93h-87.47V540a87.47,87.47,0,1,0-174.93,0V714.93Z" transform="translate(-282.69 -365.07)"/><path class="cls-1" d="M1098.3,365.07A174.93,174.93,0,1,0,1273.24,540,174.94,174.94,0,0,0,1098.3,365.07Zm0,262.4A87.47,87.47,0,1,1,1185.77,540,87.47,87.47,0,0,1,1098.3,627.47Z" transform="translate(-282.69 -365.07)"/></svg>